<?xml version="1.0" encoding="UTF-8" standalone="no"?>
<!-- Created with Inkscape (http://www.inkscape.org/) -->

<svg
   version="1.1"
   id="svg6944"
   width="1080"
   height="2048"
   viewBox="0 0 1080 2048"
   sodipodi:docname="back1.svg"
   inkscape:version="1.1 (c68e22c387, 2021-05-23)"
   xmlns:inkscape="http://www.inkscape.org/namespaces/inkscape"
   xmlns:sodipodi="http://sodipodi.sourceforge.net/DTD/sodipodi-0.dtd"
   xmlns="http://www.w3.org/2000/svg"
   xmlns:svg="http://www.w3.org/2000/svg">
  <defs
     id="defs6948">
    <clipPath
       clipPathUnits="userSpaceOnUse"
       id="clipPath8267">
      <rect
         style="opacity:0.5;fill:#ffffff"
         id="rect8269"
         width="189.36754"
         height="140.59755"
         x="3173.55"
         y="698.15466" />
    </clipPath>
  </defs>
  <sodipodi:namedview
     id="namedview6946"
     pagecolor="#505050"
     bordercolor="#eeeeee"
     borderopacity="1"
     inkscape:pageshadow="0"
     inkscape:pageopacity="0"
     inkscape:pagecheckerboard="0"
     showgrid="false"
     inkscape:zoom="0.28449999"
     inkscape:cx="-275.92268"
     inkscape:cy="978.91039"
     inkscape:window-width="1920"
     inkscape:window-height="1009"
     inkscape:window-x="-8"
     inkscape:window-y="-8"
     inkscape:window-maximized="1"
     inkscape:current-layer="g6950"
     fit-margin-top="0"
     fit-margin-left="0"
     fit-margin-right="0"
     fit-margin-bottom="0" />
  <g
     inkscape:groupmode="layer"
     inkscape:label="Image"
     id="g6950"
     style="display:inline"
     transform="translate(-1.3203883,-2.4854369)">
    <g
       id="g8303">
      <g
         id="g9628" />
      <g
         id="g9632" />
    </g>
    <rect
       style="opacity:1;mix-blend-mode:normal;fill:#ffcadb;fill-opacity:1;stroke-width:1.38451"
       id="rect17061"
       width="1080"
       height="2048"
       x="1.3203883"
       y="2.4854369" />
  </g>
  <g
     inkscape:groupmode="layer"
     id="layer1"
     inkscape:label="image2"
     style="display:inline"
     transform="translate(-1.3203883,-2.4854369)">
    <path
       d="m 803.78409,1618.8212 c 0.21566,-1.814 0.48613,-3.335 0.601,-3.3801 0.11545,-0.043 2.78729,-2.4644 5.93886,-5.3761 7.36513,-6.8047 14.76002,-10.6553 20.0859,-10.4588 16.42259,0.6058 8.71724,19.8937 -10.8853,27.2477 -6.74618,2.5309 -10.53259,2.5962 -13.02303,0.2246 -2.457,-2.3398 -3.16523,-4.4915 -2.71743,-8.2573 z m 94.2452,-71.6841 c 2.83933,-5.8562 9.85578,-12.2443 16.46975,-14.9949 3.95088,-1.6432 5.38531,-1.7561 8.0751,-0.6358 1.94651,0.8107 3.65349,2.3823 4.21599,3.8816 3.76451,10.0345 -17.73115,28.2349 -26.95176,22.8201 -3.90352,-2.2924 -4.44847,-5.6274 -1.80908,-11.071 z"
       style="fill:#f2959f;fill-opacity:1"
       id="path17318"
       sodipodi:nodetypes="scsssssssssss" />
    <path
       d="m 804.7102,1585.7738 c 2.43536,-1.3214 5.66775,-3.1852 7.18309,-4.1418 4.92436,-3.1084 11.4656,1.7848 11.41491,8.5387 -0.007,0.9536 -0.98622,2.8112 -2.17559,4.1279 -1.89749,2.1006 -2.6245,2.3771 -5.92893,2.2553 -2.46273,-0.091 -4.28693,-0.8922 -5.27052,-2.3151 -0.82736,-1.197 -1.99682,-1.9914 -2.59885,-1.7656 -2.03735,0.7643 -6.4782,-0.9663 -6.76595,-2.6366 -0.19975,-1.1597 1.04907,-2.3846 4.14188,-4.0628 z m 56.06833,1.7725 c 0.98466,-0.599 2.79685,-0.3105 4.54359,0.7233 3.9415,2.3327 9.26893,1.1739 14.05767,-3.0578 3.24121,-2.8641 3.73226,-3.9848 4.03258,-9.2024 0.28344,-4.927 0.7177,-6.0243 2.54383,-6.4284 1.59487,-0.3529 2.56318,0.2189 3.51175,2.0734 3.95842,7.7395 -2.71292,19.8349 -13.10072,23.7521 -4.03748,1.5253 -10.50839,1.252 -13.53252,-0.5664 -3.08672,-1.8561 -4.24432,-5.9626 -2.05618,-7.2938 z m 19.96085,-65.4742 c 0.16481,-1.2367 1.78251,-3.6688 3.59482,-5.4047 1.81234,-1.7359 3.60872,-4.0604 3.99202,-5.1657 0.87028,-2.5095 3.45322,-3.5454 5.67481,-2.2758 1.34483,0.7685 1.66912,1.6275 1.58318,4.1916 -0.0599,1.7739 0.58222,4.2252 1.42706,5.4474 1.97827,2.8621 2.22006,8.9406 0.43644,10.9723 -1.93473,2.2037 -7.33038,4.0734 -9.61269,3.331 -4.4074,-1.4336 -7.69695,-6.5785 -7.0948,-11.0964 z"
       style="display:inline;fill:#785561;fill-opacity:1"
       id="path17787" />
    <path
       d="m 616.25201,1419.5357 c -0.55408,-1.7407 -0.93705,-3.2374 -0.85114,-3.326 0.0872,-0.087 1.51816,-3.3966 3.1829,-7.3513 3.89043,-9.2419 9.03004,-15.8066 13.96013,-17.8309 15.20209,-6.2422 16.16594,14.5055 1.36153,29.3099 -5.09492,5.0949 -8.51512,6.7208 -11.76357,5.5918 -3.20482,-1.1138 -4.73974,-2.7798 -5.88985,-6.3935 z m 56.14888,-104.2501 c 0.16242,-6.5061 3.90775,-15.2245 8.79139,-20.4648 2.91724,-3.1304 4.17645,-3.8266 7.08874,-3.9194 2.10753,-0.067 4.31173,0.6576 5.44409,1.7899 7.57834,7.5784 -4.46269,33.0407 -15.09737,31.9253 -4.50215,-0.4722 -6.37789,-3.2831 -6.22685,-9.331 z"
       style="display:inline;fill:#f2959f;fill-opacity:1"
       id="path17318-0"
       sodipodi:nodetypes="scsssssssssss" />
    <path
       d="m 603.42415,1389.0654 c 1.67061,-2.2104 3.84242,-5.2444 4.82629,-6.7422 3.19739,-4.8671 11.17688,-3.1182 13.9247,3.0518 0.38792,0.8711 0.26502,2.9673 -0.27309,4.6581 -0.85857,2.6973 -1.40608,3.2498 -4.46488,4.5059 -2.27971,0.9361 -4.27199,0.9612 -5.75613,0.072 -1.2484,-0.7474 -2.64175,-0.9869 -3.09642,-0.5323 -1.53867,1.5387 -6.29764,1.8002 -7.25061,0.3985 -0.66157,-0.9731 -0.0313,-2.6049 2.09021,-5.4122 z m 51.77917,-21.5804 c 0.6487,-0.9527 2.41788,-1.4397 4.43582,-1.2211 4.55341,0.4932 8.92425,-2.7656 11.53348,-8.5992 1.76607,-3.9484 1.74952,-5.1718 -0.13549,-10.0463 -1.78014,-4.603 -1.83868,-5.7816 -0.3433,-6.9049 1.30603,-0.981 2.42411,-0.8611 4.05491,0.435 6.80548,5.4086 5.73534,19.1804 -2.10152,27.0438 -3.0448,3.059 -9.04913,5.487 -12.55461,5.0825 -3.57803,-0.4129 -6.33073,-3.6727 -4.88929,-5.7898 z m -8.91238,-67.8666 c -0.36154,-1.1941 0.10515,-4.0775 1.03698,-6.4077 0.93189,-2.3302 1.60576,-5.1896 1.49751,-6.3544 -0.24579,-2.6447 1.67725,-4.6563 4.22503,-4.4195 1.54227,0.1434 2.19288,0.7913 3.17533,3.1612 0.67925,1.6398 2.27795,3.6059 3.55272,4.3692 2.98505,1.7873 5.71972,7.2213 4.93631,9.8088 -0.8498,2.8067 -4.98864,6.741 -7.37364,7.0092 -4.60567,0.518 -9.72887,-2.8052 -11.0496,-7.1674 z"
       style="display:inline;fill:#785561;fill-opacity:1"
       id="path17787-1" />
    <path
       d="m 135.17497,1902.4449 c 0.20326,-1.8155 0.46334,-3.3383 0.57789,-3.3842 0.11515,-0.044 2.77039,-2.4833 5.90199,-5.4165 7.31848,-6.8549 14.6869,-10.7558 20.01399,-10.5957 16.42635,0.4935 8.85294,19.8336 -10.69891,27.3214 -6.72874,2.5769 -10.51461,2.6681 -13.02119,0.3135 -2.47293,-2.3229 -3.19584,-4.4698 -2.77377,-8.2385 z m 93.75332,-72.3263 c 2.79925,-5.8754 9.77191,-12.3113 16.36693,-15.107 3.93957,-1.6701 5.37319,-1.7929 8.07058,-0.691 1.95199,0.7974 3.66967,2.3573 4.24239,3.8528 3.83297,10.0085 -17.53785,28.3553 -26.79524,23.0036 -3.91908,-2.2656 -4.4868,-5.5968 -1.88466,-11.0584 z"
       style="display:inline;fill:#f2959f;fill-opacity:1"
       id="path17318-6"
       sodipodi:nodetypes="scsssssssssss" />
    <path
       d="m 135.87531,1869.3919 c 2.42628,-1.338 5.64585,-3.2238 7.15462,-4.1908 4.90302,-3.1419 11.47752,1.7065 11.47298,8.4606 -7e-4,0.9536 -0.967,2.8178 -2.14735,4.1427 -1.88309,2.1134 -2.60819,2.3949 -5.91338,2.2957 -2.46329,-0.074 -4.29292,-0.8629 -5.28622,-2.2791 -0.83551,-1.1913 -2.01037,-1.9777 -2.61085,-1.7478 -2.03207,0.7783 -6.48464,-0.922 -6.7838,-2.5903 -0.20766,-1.1583 1.03276,-2.3917 4.11403,-4.0909 z m 56.07912,1.3894 c 0.98055,-0.6056 2.79467,-0.3295 4.54843,0.6923 3.95735,2.3057 9.27673,1.1106 14.03645,-3.1538 3.22158,-2.8861 3.70495,-4.0101 3.96963,-9.2297 0.24978,-4.9288 0.67653,-6.029 2.49985,-6.4456 1.59242,-0.3637 2.56462,0.2013 3.52584,2.0494 4.0112,7.7122 -2.57737,19.8529 -12.93817,23.841 -4.02696,1.5529 -10.49959,1.3238 -13.53606,-0.474 -3.09934,-1.8349 -4.28496,-5.9334 -2.10597,-7.2796 z m 19.51313,-65.6089 c 0.15636,-1.2378 1.75741,-3.6809 3.55781,-5.4292 1.80045,-1.7483 3.5809,-4.085 3.95664,-5.1928 0.85313,-2.5154 3.42893,-3.5689 5.65914,-2.3146 1.35004,0.7593 1.6802,1.6161 1.61178,4.1807 -0.0478,1.7743 0.61106,4.2212 1.46424,5.4376 1.99777,2.8485 2.28108,8.9252 0.51137,10.969 -1.91963,2.2169 -7.30237,4.1234 -9.5897,3.3966 -4.4171,-1.4035 -7.74172,-6.5258 -7.17044,-11.0477 z"
       style="display:inline;fill:#785561;fill-opacity:1"
       id="path17787-6" />
    <path
       d="m 123.25397,1439.8187 c 1.78295,-0.3978 3.3077,-0.6466 3.38831,-0.5533 0.0794,0.095 3.24892,1.8131 7.04053,3.8214 8.86114,4.6936 14.9449,10.3944 16.52463,15.4844 4.87141,15.6952 -15.88015,14.8178 -29.31536,-1.2395 -4.62369,-5.5261 -5.94029,-9.0768 -4.52807,-12.2125 1.39328,-3.0936 3.1886,-4.475 6.88996,-5.3005 z m 98.86797,65.1605 c 6.46624,0.738 14.81865,5.2407 19.60591,10.5692 2.85974,3.183 3.44168,4.4989 3.27616,7.408 -0.11969,2.1053 -1.03686,4.2365 -2.26497,5.2642 -8.21968,6.8774 -32.51564,-7.3712 -30.46276,-17.8653 0.86906,-4.4427 3.83487,-6.0621 9.84566,-5.3761 z"
       style="display:inline;fill:#f2959f;fill-opacity:1"
       id="path17318-7"
       sodipodi:nodetypes="scsssssssssss" />
    <path
       d="m 154.74062,1429.7397 c 2.05376,1.8597 4.8836,4.2918 6.28833,5.4043 4.56475,3.6159 2.11607,11.4091 -4.27296,13.5998 -0.90204,0.3093 -2.97919,0 -4.61563,-0.6846 -2.61077,-1.0941 -3.11256,-1.6883 -4.0928,-4.8464 -0.73045,-2.3535 -0.57907,-4.3402 0.43749,-5.7398 0.85503,-1.1774 1.217,-2.5441 0.80409,-3.0373 -1.39634,-1.6689 -1.23531,-6.4323 0.24521,-7.2574 1.02794,-0.5728 2.59751,0.1995 5.20596,2.5614 z m 16.91015,53.4868 c 0.89144,0.7306 1.21981,2.5359 0.82339,4.5265 -0.89449,4.4919 1.9644,9.1341 7.54414,12.2498 3.77642,2.1088 4.99653,2.2007 10.01872,0.7547 4.74259,-1.3655 5.92171,-1.3194 6.90817,0.2696 0.86147,1.3877 0.64303,2.4908 -0.79236,4.0004 -5.99005,6.2998 -19.61292,4.0142 -26.75145,-4.4882 -2.77737,-3.3038 -4.66412,-9.4995 -3.9507,-12.9554 0.72815,-3.5274 4.21897,-5.9806 6.20009,-4.3574 z m 68.38916,-2.8671 c 1.2214,-0.2544 4.05214,0.4658 6.29076,1.6004 2.23834,1.1345 5.02691,2.0589 6.1967,2.0543 2.65617,-0.011 4.4895,2.083 4.02794,4.5998 -0.27905,1.5236 -0.98229,2.1142 -3.42993,2.8829 -1.69356,0.5313 -3.79359,1.9496 -4.66662,3.1518 -2.0447,2.815 -7.69953,5.0577 -10.20749,4.0483 -2.72041,-1.0951 -6.27272,-5.5661 -6.32866,-7.9654 -0.10808,-4.6335 3.65565,-9.4423 8.11786,-10.3715 z"
       style="display:inline;fill:#785561;fill-opacity:1"
       id="path17787-16" />
    <path
       d="m 445.44237,957.4324 c 0.48833,-1.7603 0.9864,-3.2227 1.10679,-3.2499 0.12068,-0.025 3.12886,-2.01306 6.68564,-4.41302 8.31211,-5.60873 16.20552,-8.29296 21.43996,-7.29085 16.14068,3.08989 5.59867,20.98577 -14.89257,25.28117 -7.05203,1.4782 -10.80454,0.9685 -12.9064,-1.7535 -2.07364,-2.6854 -2.44728,-4.9197 -1.43342,-8.5739 z m 104.02846,-56.55845 c 3.6948,-5.3577 11.59908,-10.60753 18.55375,-12.32305 4.15442,-1.02483 5.58938,-0.91888 8.07811,0.59646 1.80101,1.09664 3.24984,2.90894 3.57839,4.47628 2.19879,10.48942 -21.80895,25.2185 -30.10148,18.4676 -3.51061,-2.85795 -3.54337,-6.237 -0.10877,-11.21729 z"
       style="display:inline;fill:#f2959f;fill-opacity:1"
       id="path17318-2"
       sodipodi:nodetypes="scsssssssssss" />
    <path
       d="m 451.37078,924.90781 c 2.60762,-0.93659 6.08533,-2.28856 7.72825,-3.00422 5.33889,-2.32539 11.06218,3.5034 9.98756,10.17151 -0.15178,0.94146 -1.40124,2.629 -2.77658,3.75012 -2.19417,1.7884 -2.9547,1.9514 -6.20242,1.32978 -2.42045,-0.46337 -4.10199,-1.53212 -4.85835,-3.08784 -0.63621,-1.3086 -1.67163,-2.27125 -2.30095,-2.13933 -2.12971,0.44643 -6.25666,-1.93779 -6.2877,-3.63248 -0.0215,-1.17651 1.39865,-2.19781 4.71023,-3.38742 z m 55.15062,10.2571 c 1.06412,-0.44267 2.81159,0.11737 4.38129,1.4042 3.54205,2.90357 8.98361,2.56629 14.35884,-0.89001 3.63816,-2.33927 4.29352,-3.37251 5.38185,-8.48423 1.02754,-4.82699 1.62322,-5.84567 3.48951,-5.96807 1.62995,-0.10687 2.50033,0.6051 3.1566,2.58212 2.7386,8.25034 -5.69031,19.19382 -16.55211,21.48988 -4.22212,0.89527 -10.57671,-0.35645 -13.28999,-2.61257 -2.76946,-2.3028 -3.29073,-6.53743 -0.92599,-7.52132 z m 29.66174,-61.68858 c 0.3505,-1.19738 2.31841,-3.35594 4.37308,-4.79693 2.05469,-1.44089 4.18288,-3.466 4.72941,-4.50032 1.24089,-2.34844 3.95107,-2.98051 5.95436,-1.38865 1.21269,0.96361 1.40293,1.86188 0.92903,4.38324 -0.32832,1.74426 -0.0655,4.26464 0.58422,5.60088 1.52122,3.12907 0.83816,9.17389 -1.23301,10.91148 -2.24662,1.88471 -7.86345,2.91437 -10.00674,1.83432 -4.13893,-2.08562 -6.60998,-7.66994 -5.32947,-12.0442 z"
       style="display:inline;fill:#785561;fill-opacity:1"
       id="path17787-06" />
    <path
       d="m 113.31784,939.72034 c 1.8214,-0.14061 3.36599,-0.1705 3.43256,-0.0666 0.0649,0.10484 2.95856,2.25589 6.42668,4.78228 8.10498,5.90411 13.31775,12.41086 14.15885,17.67357 2.59375,16.2278 -17.82304,12.41319 -28.84242,-5.38891 -3.7923,-6.12656 -4.59142,-9.82827 -2.74833,-12.73171 1.8183,-2.86446 3.79162,-3.97692 7.57266,-4.26863 z m 88.61546,78.53716 c 6.29594,1.6485 13.92454,7.2914 17.90676,13.2456 2.37885,3.5568 2.76809,4.942 2.19127,7.7981 -0.41747,2.0668 -1.62778,4.0464 -2.98943,4.8893 -9.11285,5.6408 -31.13978,-11.9129 -27.61782,-22.0093 1.49099,-4.2742 4.65676,-5.4562 10.50922,-3.9237 z"
       style="display:inline;fill:#f2959f;fill-opacity:1"
       id="path17318-72"
       sodipodi:nodetypes="scsssssssssss" />
    <path
       d="m 145.91647,934.21365 c 1.76894,2.13255 4.22481,4.94163 5.45738,6.24246 4.00515,4.22728 0.47488,11.59396 -6.16048,12.85532 -0.93685,0.17804 -2.94911,-0.42177 -4.47171,-1.33291 -2.42893,-1.45363 -2.84127,-2.11314 -3.36327,-5.37835 -0.38895,-2.43352 0.043,-4.37856 1.24798,-5.61969 1.01358,-1.04396 1.5659,-2.3454 1.22747,-2.89214 -1.14527,-1.85022 -0.31,-6.54252 1.27309,-7.14907 1.0988,-0.42105 2.54282,0.56624 4.78946,3.27444 z m 9.14517,55.34587 c 0.77869,0.84967 0.84751,2.68338 0.17238,4.59758 -1.52318,4.31935 0.64775,9.3205 5.72854,13.1967 3.43878,2.6236 4.63348,2.8877 9.81017,2.1695 4.88831,-0.6784 6.04899,-0.4654 6.79987,1.2475 0.65577,1.4961 0.2829,2.557 -1.35227,3.8475 -6.82381,5.3855 -19.98421,1.189 -25.8433,-8.2408 -2.28012,-3.6646 -3.26815,-10.06543 -2.07134,-13.38503 1.22154,-3.3883 5.02526,-5.32104 6.75591,-3.43294 z m 68.10349,6.87132 c 1.24516,-0.0784 3.94501,1.03642 5.99979,2.47726 2.05469,1.4409 4.68368,2.7519 5.84232,2.9133 2.63071,0.3666 4.14826,2.6993 3.33411,5.1251 -0.49282,1.4684 -1.27255,1.9533 -3.80452,2.3668 -1.75178,0.2855 -4.03183,1.3913 -5.06681,2.4573 -2.42364,2.4963 -8.33956,3.9134 -10.67881,2.5581 -2.53735,-1.4702 -5.41894,-6.4002 -5.13367,-8.7832 0.5508,-4.6019 4.95923,-8.82758 9.50807,-9.1139 z"
       style="display:inline;fill:#785561;fill-opacity:1"
       id="path17787-5" />
    <path
       d="m 315.18386,1261.1787 c 1.76347,-0.4774 3.27535,-0.7945 3.36017,-0.7048 0.0838,0.091 3.32691,1.6655 7.20487,3.5017 9.0628,4.2914 15.39613,9.7134 17.20274,14.7274 5.5707,15.4608 -15.19931,15.5154 -29.34143,0.077 -4.86697,-5.3131 -6.34162,-8.8012 -5.07145,-11.9972 1.25295,-3.1529 2.9846,-4.6134 6.64511,-5.6042 z m 101.69208,60.659 c 6.49285,0.4471 15.03889,4.5706 20.06041,9.6789 2.99964,3.0515 3.63998,4.34 3.60521,7.2536 -0.0252,2.1084 -0.84565,4.2788 -2.02649,5.3605 -7.90289,7.2393 -32.81372,-5.9049 -31.2337,-16.4806 0.6688,-4.4771 3.55904,-6.228 9.59457,-5.8124 z"
       style="display:inline;fill:#f2959f;fill-opacity:1"
       id="path17318-74"
       sodipodi:nodetypes="scsssssssssss" />
    <path
       d="m 346.18673,1249.697 c 2.13513,1.7658 5.07115,4.0684 6.5245,5.1169 4.72235,3.4074 2.62576,11.3027 -3.65859,13.7778 -0.88726,0.3493 -2.97594,0.1348 -4.64173,-0.4768 -2.65713,-0.9758 -3.18506,-1.547 -4.30611,-4.6579 -0.83531,-2.3185 -0.77273,-4.31 0.1796,-5.7538 0.80139,-1.2145 1.10174,-2.5959 0.66738,-3.0701 -1.46983,-1.6046 -1.52279,-6.3704 -0.0807,-7.2611 1.00122,-0.6184 2.6039,0.083 5.3156,2.3251 z m 19.29287,52.6744 c 0.92328,0.6898 1.33244,2.4786 1.02564,4.485 -0.69209,4.5274 2.37232,9.0368 8.08614,11.8989 3.86724,1.9372 5.09018,1.9743 10.04253,0.3045 4.6764,-1.577 5.85649,-1.5839 6.91321,-0.041 0.92299,1.3477 0.75416,2.4595 -0.61202,4.032 -5.70143,6.5621 -19.41317,4.8901 -26.92594,-3.2835 -2.92275,-3.1758 -5.0856,-9.2807 -4.528,-12.7651 0.56915,-3.5565 3.94641,-6.1639 5.99844,-4.6311 z m 68.19162,-5.9327 c 1.20877,-0.3089 4.06907,0.2836 6.35624,1.3165 2.28708,1.033 5.11425,1.8315 6.28267,1.7743 2.65293,-0.1298 4.57841,1.8795 4.23026,4.4145 -0.21062,1.5345 -0.88649,2.1561 -3.29715,3.0339 -1.66799,0.6068 -3.70217,2.1179 -4.5205,3.358 -1.91629,2.9039 -7.46477,5.3981 -10.01552,4.5021 -2.76682,-0.9718 -6.51616,-5.2789 -6.67964,-7.6734 -0.31596,-4.6239 3.22831,-9.5967 7.64427,-10.7252 z"
       style="display:inline;fill:#785561;fill-opacity:1"
       id="path17787-3" />
    <path
       d="m 887.13096,1990.2986 c -1.6227,-0.8391 -2.9518,-1.6266 -2.9537,-1.75 0,-0.1233 -1.3283,-3.4753 -2.9475,-7.4488 -3.7841,-9.286 -4.7918,-17.5622 -2.7371,-22.4797 6.3356,-15.1634 21.688,-1.1741 21.688,19.7625 0,7.2053 -1.2688,10.7734 -4.3641,12.2721 -3.0537,1.4786 -5.3171,1.3859 -8.6856,-0.3561 z m -34.0127,-113.4192 c -4.4857,-4.7154 -8.0022,-13.5286 -8.2544,-20.6873 -0.1507,-4.2763 0.2474,-5.659 2.2411,-7.7839 1.4428,-1.5377 3.5138,-2.5839 5.1152,-2.5839 10.7174,0 20.2077,26.5189 11.8991,33.25 -3.5174,2.8496 -6.8313,2.1884 -11.001,-2.1949 z"
       style="display:inline;fill:#f2959f;fill-opacity:1"
       id="path17318-14"
       sodipodi:nodetypes="scsssssssssss" />
    <path
       d="m 856.51452,1977.8235 c -0.3817,-2.7443 -0.9914,-6.4254 -1.3548,-8.1802 -1.1806,-5.7024 5.6984,-10.1081 12.0042,-7.6883 0.8903,0.3417 2.2856,1.9108 3.1007,3.4869 1.3002,2.5144 1.3037,3.2922 0.029,6.3433 -0.9501,2.2739 -2.3411,3.7004 -4.0189,4.1215 -1.4113,0.3542 -2.5659,1.1701 -2.5659,1.8131 0,2.176 -3.1802,5.726 -4.8452,5.4087 -1.1559,-0.2203 -1.8641,-1.8198 -2.349,-5.305 z m 21.3537,-51.8731 c -0.2149,-1.1323 0.6917,-2.7277 2.2732,-4 3.5685,-2.871 4.3548,-8.266 2.0748,-14.236 -1.5431,-4.0407 -2.4199,-4.8941 -7.1996,-7.008 -4.5135,-1.996 -5.3883,-2.788 -5.1252,-4.6397 0.2298,-1.6172 1.1052,-2.323 3.1748,-2.5597 8.6367,-0.9877 17.6181,9.5071 17.6369,20.6089 0.01,4.316 -2.5188,10.2786 -5.2836,12.4713 -2.822,2.2381 -7.0735,1.8795 -7.5513,-0.6368 z m -54.2909,-41.6869 c -1.1,-0.5887 -2.8089,-2.9576 -3.7977,-5.2642 -0.9887,-2.3066 -2.5341,-4.805 -3.4343,-5.5521 -2.0439,-1.6963 -2.1065,-4.4785 -0.1375,-6.1126 1.1919,-0.9892 2.1101,-0.9911 4.4806,-0.01 1.6398,0.6792 4.1605,0.939 5.6016,0.5773 3.3746,-0.8469 9.1507,1.0618 10.4264,3.4454 1.3837,2.5855 1.2391,8.2941 -0.2577,10.1702 -2.8904,3.623 -8.8629,4.8958 -12.8814,2.7451 z"
       style="display:inline;fill:#785561;fill-opacity:1"
       id="path17787-7" />
    <path
       d="m 544.14067,1870.9976 c -1.6227,-0.8391 -2.9518,-1.6266 -2.9537,-1.75 0,-0.1233 -1.3283,-3.4753 -2.9475,-7.4488 -3.7841,-9.286 -4.7918,-17.5622 -2.7371,-22.4797 6.3356,-15.1634 21.688,-1.1741 21.688,19.7625 0,7.2053 -1.2688,10.7734 -4.3641,12.2721 -3.0537,1.4786 -5.3171,1.3859 -8.6856,-0.3561 z m -34.0127,-113.4192 c -4.4857,-4.7154 -8.0022,-13.5286 -8.2544,-20.6873 -0.1507,-4.2763 0.2474,-5.659 2.2411,-7.7839 1.4428,-1.5377 3.5138,-2.5839 5.1152,-2.5839 10.7174,0 20.2077,26.5189 11.8991,33.25 -3.5174,2.8496 -6.8313,2.1884 -11.001,-2.1949 z"
       style="display:inline;fill:#f2959f;fill-opacity:1"
       id="path17318-25"
       sodipodi:nodetypes="scsssssssssss" />
    <path
       d="m 513.52423,1858.5225 c -0.3817,-2.7443 -0.9914,-6.4254 -1.3548,-8.1802 -1.1806,-5.7024 5.6984,-10.1081 12.0042,-7.6883 0.8903,0.3417 2.2856,1.9108 3.1007,3.4869 1.3002,2.5144 1.3037,3.2922 0.029,6.3433 -0.9501,2.2739 -2.3411,3.7004 -4.0189,4.1215 -1.4113,0.3542 -2.5659,1.1701 -2.5659,1.8131 0,2.176 -3.1802,5.726 -4.8452,5.4087 -1.1559,-0.2203 -1.8641,-1.8198 -2.349,-5.305 z m 21.3537,-51.8731 c -0.2149,-1.1323 0.6917,-2.7277 2.2732,-4 3.5685,-2.871 4.3548,-8.266 2.0748,-14.236 -1.5431,-4.0407 -2.4199,-4.8941 -7.1996,-7.008 -4.5135,-1.996 -5.3883,-2.788 -5.1252,-4.6397 0.2298,-1.6172 1.1052,-2.323 3.1748,-2.5597 8.6367,-0.9877 17.6181,9.5071 17.6369,20.6089 0.01,4.316 -2.5188,10.2786 -5.2836,12.4713 -2.822,2.2381 -7.0735,1.8795 -7.5513,-0.6368 z m -54.2909,-41.6869 c -1.1,-0.5887 -2.8089,-2.9576 -3.7977,-5.2642 -0.9887,-2.3066 -2.5341,-4.805 -3.4343,-5.5521 -2.0439,-1.6963 -2.1065,-4.4785 -0.1375,-6.1126 1.1919,-0.9892 2.1101,-0.9911 4.4806,-0.01 1.6398,0.6792 4.1605,0.939 5.6016,0.5773 3.3746,-0.8469 9.1507,1.0618 10.4264,3.4454 1.3837,2.5855 1.2391,8.2941 -0.2577,10.1702 -2.8904,3.623 -8.8629,4.8958 -12.8814,2.7451 z"
       style="display:inline;fill:#785561;fill-opacity:1"
       id="path17787-39" />
    <path
       d="m 276.99427,388.01725 c -0.2156,1.814 -0.4861,3.335 -0.601,3.3801 -0.1154,0.043 -2.7873,2.4644 -5.9388,5.3761 -7.3652,6.8047 -14.7601,10.6553 -20.0859,10.4588 -16.4226,-0.6058 -8.7173,-19.8937 10.8853,-27.2477 6.7461,-2.5308 10.5326,-2.5961 13.023,-0.2246 2.457,2.3398 3.1652,4.4916 2.7174,8.2573 z m -94.2452,71.6841 c -2.8393,5.8562 -9.8558,12.2443 -16.4697,14.9949 -3.9509,1.6432 -5.3853,1.7561 -8.0751,0.6358 -1.9465,-0.8107 -3.6535,-2.3823 -4.216,-3.8816 -3.7645,-10.0345 17.7311,-28.2349 26.9517,-22.8201 3.9036,2.2924 4.4485,5.6274 1.8091,11.071 z"
       style="display:inline;fill:#f2959f;fill-opacity:1"
       id="path17318-3"
       sodipodi:nodetypes="scsssssssssss" />
    <path
       d="m 276.06817,421.06465 c -2.4353,1.3214 -5.6677,3.1852 -7.1831,4.1419 -4.9243,3.1084 -11.4656,-1.7848 -11.4149,-8.5388 0.01,-0.9536 0.9862,-2.8112 2.1756,-4.1279 1.8975,-2.1005 2.6245,-2.377 5.9289,-2.2553 2.4628,0.091 4.287,0.8922 5.2706,2.3151 0.8273,1.197 1.9968,1.9915 2.5988,1.7656 2.0374,-0.7643 6.4782,0.9663 6.766,2.6366 0.1997,1.1597 -1.0491,2.3847 -4.1419,4.0628 z m -56.0683,-1.7725 c -0.9847,0.599 -2.7969,0.3105 -4.5436,-0.7233 -3.9415,-2.3327 -9.2689,-1.1739 -14.0577,3.0578 -3.2412,2.8641 -3.7322,3.9848 -4.0326,9.2024 -0.2834,4.927 -0.7177,6.0243 -2.5438,6.4284 -1.5949,0.3529 -2.5632,-0.2189 -3.5117,-2.0734 -3.9585,-7.7395 2.7129,-19.8349 13.1007,-23.7521 4.0375,-1.5253 10.5084,-1.252 13.5325,0.5664 3.0867,1.8561 4.2443,5.9626 2.0562,7.2938 z m -19.9609,65.4742 c -0.1648,1.2367 -1.7825,3.6688 -3.5948,5.4048 -1.8123,1.7358 -3.6087,4.0604 -3.992,5.1657 -0.8703,2.5094 -3.4532,3.5454 -5.6748,2.2757 -1.3448,-0.7684 -1.6691,-1.6275 -1.5832,-4.1916 0.06,-1.7739 -0.5822,-4.2252 -1.4271,-5.4474 -1.9782,-2.8621 -2.22,-8.9406 -0.4364,-10.9723 1.9347,-2.2037 7.3304,-4.0734 9.6127,-3.331 4.4074,1.4337 7.6969,6.5786 7.0948,11.0964 z"
       style="display:inline;fill:#785561;fill-opacity:1"
       id="path17787-0" />
    <path
       d="m 464.52637,587.30275 c 0.5541,1.7407 0.9371,3.2374 0.8511,3.326 -0.087,0.087 -1.5181,3.3966 -3.1829,7.3513 -3.8904,9.2419 -9.03,15.8066 -13.9601,17.8309 -15.2021,6.2422 -16.1659,-14.5055 -1.3615,-29.3099 5.0949,-5.0949 8.5151,-6.7208 11.7636,-5.5917 3.2048,1.1138 4.7397,2.7798 5.8898,6.3934 z m -56.1489,104.2501 c -0.1624,6.5061 -3.9077,15.2245 -8.7914,20.4648 -2.9172,3.1304 -4.1764,3.8266 -7.0887,3.9194 -2.1075,0.067 -4.3117,-0.6576 -5.4441,-1.7899 -7.5783,-7.5784 4.4627,-33.0407 15.0974,-31.9253 4.5021,0.4722 6.3779,3.2831 6.2268,9.331 z"
       style="display:inline;fill:#f2959f;fill-opacity:1"
       id="path17318-0-2"
       sodipodi:nodetypes="scsssssssssss" />
    <path
       d="m 477.35427,617.77305 c -1.6706,2.2104 -3.8424,5.2444 -4.8263,6.7422 -3.1974,4.8671 -11.1769,3.1182 -13.9247,-3.0518 -0.3879,-0.8711 -0.265,-2.9673 0.2731,-4.6581 0.8585,-2.6973 1.406,-3.2498 4.4648,-4.5059 2.2798,-0.9361 4.272,-0.9612 5.7562,-0.072 1.2484,0.7474 2.6417,0.9869 3.0964,0.5323 1.5387,-1.5387 6.2976,-1.8002 7.2506,-0.3985 0.6616,0.9731 0.031,2.6049 -2.0902,5.4122 z m -51.7792,21.5804 c -0.6487,0.9527 -2.4179,1.4397 -4.4358,1.2211 -4.5534,-0.4931 -8.9243,2.7656 -11.5335,8.5993 -1.7661,3.9484 -1.7495,5.1718 0.1355,10.0463 1.7801,4.603 1.8387,5.7816 0.3433,6.9048 -1.306,0.981 -2.4241,0.8612 -4.0549,-0.4349 -6.8055,-5.4086 -5.7354,-19.1804 2.1015,-27.0438 3.0448,-3.059 9.0491,-5.487 12.5546,-5.0825 3.578,0.4129 6.3307,3.6727 4.8893,5.7897 z m 8.9124,67.8667 c 0.3615,1.194 -0.1052,4.0775 -1.037,6.4076 -0.9319,2.3303 -1.6058,5.1896 -1.4975,6.3544 0.2458,2.6447 -1.6773,4.6564 -4.225,4.4195 -1.5423,-0.1434 -2.1929,-0.7913 -3.1754,-3.1612 -0.6792,-1.6398 -2.2779,-3.6059 -3.5527,-4.3692 -2.985,-1.7873 -5.7197,-7.2213 -4.9363,-9.8088 0.8498,-2.8067 4.9886,-6.741 7.3736,-7.0092 4.6057,-0.518 9.7289,2.8052 11.0496,7.1674 z"
       style="display:inline;fill:#785561;fill-opacity:1"
       id="path17787-1-2" />
    <path
       d="m 945.60342,104.3935 c -0.20326,1.8156 -0.46334,3.3383 -0.57789,3.3842 -0.11515,0.044 -2.77039,2.4834 -5.90199,5.4166 -7.31848,6.8548 -14.6869,10.7558 -20.01399,10.5956 -16.42635,-0.4935 -8.85294,-19.8335 10.69891,-27.321304 6.72874,-2.5769 10.51461,-2.6682 13.02119,-0.3136 2.47293,2.323 3.19584,4.469904 2.77377,8.238504 z m -93.75332,72.32635 c -2.79925,5.8754 -9.77191,12.3113 -16.36693,15.107 -3.93957,1.6701 -5.37319,1.7929 -8.07058,0.691 -1.95199,-0.7974 -3.66967,-2.3573 -4.24239,-3.8528 -3.83297,-10.0084 17.53785,-28.3553 26.79524,-23.0036 3.91908,2.2656 4.4868,5.5968 1.88466,11.0584 z"
       style="display:inline;fill:#f2959f;fill-opacity:1"
       id="path17318-6-2"
       sodipodi:nodetypes="scsssssssssss" />
    <path
       d="m 944.90308,137.4465 c -2.42628,1.338 -5.64585,3.2238 -7.15462,4.1908 -4.90302,3.142 -11.47752,-1.7065 -11.47298,-8.4605 7e-4,-0.9536 0.967,-2.8178 2.14735,-4.1428 1.88309,-2.1133 2.60819,-2.3949 5.91338,-2.2956 2.46329,0.074 4.29292,0.8629 5.28622,2.2791 0.83551,1.1913 2.01037,1.9776 2.61085,1.7478 2.03207,-0.7783 6.48464,0.922 6.7838,2.5903 0.20766,1.1583 -1.03276,2.3917 -4.11403,4.0909 z m -56.07912,-1.3894 c -0.98055,0.6056 -2.79467,0.3295 -4.54843,-0.6923 -3.95735,-2.3056 -9.27673,-1.1106 -14.03645,3.1538 -3.22158,2.8861 -3.70495,4.0101 -3.96963,9.2298 -0.24978,4.92875 -0.67653,6.02895 -2.49985,6.44555 -1.59242,0.3638 -2.56462,-0.2012 -3.52584,-2.0494 -4.0112,-7.71215 2.57737,-19.85295 12.93817,-23.84095 4.02696,-1.5528 10.49959,-1.3237 13.53606,0.474 3.09934,1.8349 4.28496,5.9333 2.10597,7.2795 z m -19.51313,65.60895 c -0.15636,1.2378 -1.75741,3.6809 -3.55781,5.4292 -1.80045,1.7483 -3.5809,4.085 -3.95664,5.1928 -0.85313,2.5154 -3.42893,3.5689 -5.65914,2.3146 -1.35004,-0.7593 -1.6802,-1.6161 -1.61178,-4.1807 0.0478,-1.7743 -0.61106,-4.2212 -1.46424,-5.4376 -1.99777,-2.8485 -2.28108,-8.9252 -0.51137,-10.969 1.91963,-2.2169 7.30237,-4.1234 9.5897,-3.3966 4.4171,1.4035 7.74172,6.5258 7.17044,11.0477 z"
       style="display:inline;fill:#785561;fill-opacity:1"
       id="path17787-6-0" />
    <path
       d="m 957.52442,567.01975 c -1.78295,0.3978 -3.3077,0.6466 -3.38831,0.5533 -0.0794,-0.095 -3.24892,-1.8131 -7.04053,-3.8214 -8.86114,-4.6936 -14.9449,-10.3944 -16.52463,-15.4844 -4.87141,-15.6952 15.88015,-14.8178 29.31536,1.2395 4.62369,5.5261 5.94029,9.0768 4.52807,12.2125 -1.39328,3.0936 -3.1886,4.475 -6.88996,5.3005 z m -98.86797,-65.1605 c -6.46624,-0.738 -14.81865,-5.2407 -19.60591,-10.5692 -2.85974,-3.183 -3.44168,-4.4989 -3.27616,-7.4079 0.11969,-2.1053 1.03686,-4.2365 2.26497,-5.2643 8.21968,-6.8774 32.51564,7.3713 30.46276,17.8653 -0.86906,4.4427 -3.83487,6.0621 -9.84566,5.3761 z"
       style="display:inline;fill:#f2959f;fill-opacity:1"
       id="path17318-7-4"
       sodipodi:nodetypes="scsssssssssss" />
    <path
       d="m 926.03777,577.09875 c -2.05376,-1.8597 -4.8836,-4.2918 -6.28833,-5.4043 -4.56475,-3.6159 -2.11607,-11.4091 4.27296,-13.5998 0.90204,-0.3093 2.97919,0 4.61563,0.6846 2.61077,1.0941 3.11256,1.6883 4.0928,4.8464 0.73045,2.3535 0.57907,4.3402 -0.43749,5.7398 -0.85503,1.1774 -1.217,2.5441 -0.80409,3.0373 1.39634,1.6689 1.23531,6.4323 -0.24521,7.2574 -1.02794,0.5728 -2.59751,-0.1995 -5.20596,-2.5614 z m -16.91015,-53.4868 c -0.89144,-0.7306 -1.21981,-2.5359 -0.82339,-4.5265 0.89449,-4.4919 -1.9644,-9.1341 -7.54414,-12.2498 -3.77642,-2.1088 -4.99653,-2.2007 -10.01872,-0.7547 -4.74259,1.3656 -5.92171,1.3194 -6.90817,-0.2696 -0.86147,-1.3877 -0.64303,-2.4908 0.79236,-4.0004 5.99005,-6.2998 19.61292,-4.0142 26.75145,4.4882 2.77737,3.3038 4.66412,9.4995 3.9507,12.9554 -0.72815,3.5274 -4.21897,5.9807 -6.20009,4.3574 z m -68.38916,2.8671 c -1.2214,0.2544 -4.05214,-0.4658 -6.29076,-1.6004 -2.23834,-1.1345 -5.02691,-2.0589 -6.1967,-2.0543 -2.65617,0.011 -4.4895,-2.083 -4.02794,-4.5998 0.27905,-1.5236 0.98229,-2.1142 3.42993,-2.8829 1.69356,-0.5313 3.79359,-1.9496 4.66662,-3.1518 2.0447,-2.815 7.69953,-5.0577 10.20749,-4.0483 2.72041,1.0951 6.27272,5.5661 6.32866,7.9654 0.10808,4.6335 -3.65565,9.4423 -8.11786,10.3715 z"
       style="display:inline;fill:#785561;fill-opacity:1"
       id="path17787-16-5" />
    <path
       d="m 967.46055,1067.1181 c -1.8214,0.1406 -3.36599,0.1705 -3.43256,0.067 -0.0649,-0.1048 -2.95856,-2.2559 -6.42668,-4.7823 -8.10498,-5.9041 -13.31775,-12.4108 -14.15885,-17.6735 -2.59375,-16.2278 17.82304,-12.4132 28.84242,5.3889 3.7923,6.1265 4.59142,9.8282 2.74833,12.7317 -1.8183,2.8644 -3.79162,3.9769 -7.57266,4.2686 z m -88.61546,-78.53715 c -6.29594,-1.6485 -13.92454,-7.2914 -17.90676,-13.2456 -2.37885,-3.5568 -2.76809,-4.942 -2.19127,-7.7981 0.41747,-2.0668 1.62778,-4.0463 2.98943,-4.8893 9.11285,-5.6407 31.13978,11.9129 27.61782,22.0094 -1.49099,4.2741 -4.65676,5.4561 -10.50922,3.9236 z"
       style="display:inline;fill:#f2959f;fill-opacity:1"
       id="path17318-72-5"
       sodipodi:nodetypes="scsssssssssss" />
    <path
       d="m 934.86192,1072.6248 c -1.76894,-2.1326 -4.22481,-4.9416 -5.45738,-6.2425 -4.00515,-4.2272 -0.47488,-11.5939 6.16048,-12.8553 0.93685,-0.178 2.94911,0.4218 4.47171,1.3329 2.42893,1.4537 2.84127,2.1132 3.36327,5.3784 0.38895,2.4335 -0.043,4.3785 -1.24798,5.6197 -1.01358,1.0439 -1.5659,2.3454 -1.22747,2.8921 1.14527,1.8502 0.31,6.5425 -1.27309,7.1491 -1.0988,0.421 -2.54282,-0.5663 -4.78946,-3.2745 z m -9.14517,-55.3459 c -0.77869,-0.8496 -0.84751,-2.6834 -0.17238,-4.5976 1.52318,-4.3193 -0.64775,-9.3205 -5.72854,-13.19665 -3.43878,-2.6236 -4.63348,-2.8877 -9.81017,-2.1694 -4.88831,0.6784 -6.04899,0.4654 -6.79987,-1.2475 -0.65577,-1.4962 -0.2829,-2.557 1.35227,-3.8476 6.82381,-5.3854 19.98421,-1.1889 25.8433,8.24085 2.28012,3.6646 3.26815,10.0654 2.07134,13.385 -1.22154,3.3883 -5.02526,5.321 -6.75591,3.4329 z m -68.10349,-6.8713 c -1.24516,0.078 -3.94501,-1.0364 -5.99979,-2.4773 -2.05469,-1.4409 -4.68368,-2.7519 -5.84232,-2.9133 -2.63071,-0.3666 -4.14826,-2.6993 -3.33411,-5.12505 0.49282,-1.4684 1.27255,-1.9533 3.80452,-2.3668 1.75178,-0.2855 4.03183,-1.3913 5.06681,-2.4573 2.42364,-2.4963 8.33956,-3.9134 10.67881,-2.5581 2.53735,1.4702 5.41894,6.4002 5.13367,8.78315 -0.5508,4.6019 -4.95923,8.8276 -9.50807,9.1139 z"
       style="display:inline;fill:#785561;fill-opacity:1"
       id="path17787-5-3" />
    <path
       d="m 765.59453,745.65975 c -1.76347,0.4774 -3.27535,0.7945 -3.36017,0.7048 -0.0838,-0.091 -3.32691,-1.6655 -7.20487,-3.5017 -9.0628,-4.2914 -15.39613,-9.7134 -17.20274,-14.7274 -5.5707,-15.4608 15.19931,-15.5154 29.34143,-0.077 4.86697,5.3131 6.34162,8.8012 5.07145,11.9972 -1.25295,3.1529 -2.9846,4.6134 -6.64511,5.6042 z m -101.69208,-60.659 c -6.49285,-0.4471 -15.03889,-4.5706 -20.06041,-9.6789 -2.99964,-3.0515 -3.63998,-4.34 -3.60521,-7.2536 0.0252,-2.1084 0.84565,-4.2788 2.02649,-5.3605 7.90289,-7.2393 32.81372,5.9049 31.2337,16.4806 -0.6688,4.4771 -3.55904,6.228 -9.59457,5.8124 z"
       style="display:inline;fill:#f2959f;fill-opacity:1"
       id="path17318-74-1"
       sodipodi:nodetypes="scsssssssssss" />
    <path
       d="m 734.59166,757.14145 c -2.13513,-1.7657 -5.07115,-4.0684 -6.5245,-5.1169 -4.72235,-3.4074 -2.62576,-11.3026 3.65859,-13.7778 0.88726,-0.3493 2.97594,-0.1348 4.64173,0.4768 2.65713,0.9758 3.18506,1.547 4.30611,4.6579 0.83531,2.3185 0.77273,4.31 -0.1796,5.7538 -0.80139,1.2145 -1.10174,2.5959 -0.66738,3.0701 1.46983,1.6046 1.52279,6.3704 0.0807,7.2611 -1.00122,0.6184 -2.6039,-0.083 -5.3156,-2.3251 z m -19.29287,-52.6744 c -0.92328,-0.6898 -1.33244,-2.4786 -1.02564,-4.485 0.69209,-4.5273 -2.37232,-9.0368 -8.08614,-11.8988 -3.86724,-1.9373 -5.09018,-1.9744 -10.04253,-0.3045 -4.6764,1.577 -5.85649,1.5839 -6.91321,0.041 -0.92299,-1.3478 -0.75416,-2.4595 0.61202,-4.032 5.70143,-6.5622 19.41317,-4.8901 26.92594,3.2835 2.92275,3.1758 5.0856,9.2807 4.528,12.7651 -0.56915,3.5565 -3.94641,6.1639 -5.99844,4.6311 z m -68.19162,5.9327 c -1.20877,0.3089 -4.06907,-0.2836 -6.35624,-1.3164 -2.28708,-1.033 -5.11425,-1.8315 -6.28267,-1.7744 -2.65293,0.1298 -4.57841,-1.8795 -4.23026,-4.4145 0.21062,-1.5345 0.88649,-2.1561 3.29715,-3.0339 1.66799,-0.6068 3.70217,-2.1178 4.5205,-3.3579 1.91629,-2.9039 7.46477,-5.3982 10.01552,-4.5021 2.76682,0.9718 6.51616,5.2789 6.67964,7.6734 0.31596,4.6239 -3.22831,9.5967 -7.64427,10.7252 z"
       style="display:inline;fill:#785561;fill-opacity:1"
       id="path17787-3-5" />
    <path
       d="m 193.64747,16.539796 c 1.6227,0.8392 2.9518,1.6267 2.9537,1.75 0,0.1234 1.3283,3.4754 2.9475,7.4489 3.7841,9.286 4.7918,17.5621 2.7371,22.4796 -6.3356,15.1634 -21.688,1.1742 -21.688,-19.7624 0,-7.2053 1.2688,-10.7734 4.3641,-12.2721 3.0537,-1.4786 5.3171,-1.3858 8.6856,0.356 z m 34.0127,113.419304 c 4.4857,4.7154 8.0022,13.5286 8.2544,20.68725 0.1507,4.2763 -0.2474,5.659 -2.2411,7.7839 -1.4428,1.5377 -3.5138,2.5839 -5.1152,2.5839 -10.7174,0 -20.2077,-26.51885 -11.8991,-33.24995 3.5174,-2.8495 6.8313,-2.1883 11.001,2.1949 z"
       style="display:inline;fill:#f2959f;fill-opacity:1"
       id="path17318-14-9"
       sodipodi:nodetypes="scsssssssssss" />
    <path
       d="m 224.26387,29.014896 c 0.3817,2.7444 0.9914,6.4254 1.3548,8.1803 1.1806,5.7023 -5.6984,10.1081 -12.0042,7.6882 -0.8903,-0.3417 -2.2856,-1.9108 -3.1007,-3.4868 -1.3002,-2.5144 -1.3037,-3.2923 -0.029,-6.3433 0.9501,-2.274 2.3411,-3.7005 4.0189,-4.1216 1.4113,-0.3541 2.5659,-1.17 2.5659,-1.8131 0,-2.1759 3.1802,-5.726 4.8452,-5.4086 1.1559,0.2202 1.8641,1.8197 2.349,5.3049 z m -21.3537,51.8732 c 0.2149,1.1322 -0.6917,2.7277 -2.2732,4 -3.5685,2.871 -4.3548,8.266 -2.0748,14.2359 1.5431,4.040804 2.4199,4.894104 7.1996,7.008104 4.5135,1.996 5.3883,2.788 5.1252,4.6396 -0.2298,1.6173 -1.1052,2.3231 -3.1748,2.5598 -8.6367,0.9876 -17.6181,-9.5072 -17.6369,-20.608904 -0.01,-4.316 2.5188,-10.2787 5.2836,-12.4713 2.822,-2.2381 7.0735,-1.8795 7.5513,0.6368 z m 54.2909,41.686804 c 1.1,0.5888 2.8089,2.9577 3.7977,5.2642 0.9887,2.3066 2.5341,4.805 3.4343,5.5521 2.0439,1.6964 2.1065,4.4785 0.1375,6.1126 -1.1919,0.9892 -2.1101,0.9911 -4.4806,0.01 -1.6398,-0.6792 -4.1605,-0.939 -5.6016,-0.5773 -3.3746,0.847 -9.1507,-1.0617 -10.4264,-3.4454 -1.3837,-2.5854 -1.2391,-8.2941 0.2577,-10.1702 2.8904,-3.623 8.8629,-4.8957 12.8814,-2.7451 z"
       style="display:inline;fill:#785561;fill-opacity:1"
       id="path17787-7-8" />
    <path
       d="m 536.63777,135.8408 c 1.6227,0.8391 2.9518,1.6266 2.9537,1.75 0,0.1233 1.3283,3.4753 2.9475,7.4488 3.7841,9.28605 4.79175,17.56225 2.7371,22.47975 -6.3356,15.1634 -21.688,1.1741 -21.688,-19.76255 0,-7.2053 1.2688,-10.7734 4.3641,-12.2721 3.0537,-1.4785 5.3171,-1.3859 8.6856,0.3561 z m 34.01265,113.41925 c 4.4857,4.7155 8.0022,13.5287 8.2544,20.6874 0.1507,4.2763 -0.2474,5.659 -2.2411,7.7838 -1.4428,1.5378 -3.5138,2.584 -5.1152,2.584 -10.7174,0 -20.2077,-26.519 -11.8991,-33.25 3.5174,-2.8497 6.8313,-2.1884 11.001,2.1948 z"
       style="display:inline;fill:#f2959f;fill-opacity:1"
       id="path17318-25-7"
       sodipodi:nodetypes="scsssssssssss" />
    <path
       d="m 567.25416,148.3159 c 0.3817,2.74435 0.9914,6.42545 1.3548,8.18025 1.1806,5.7024 -5.6984,10.1081 -12.0042,7.6883 -0.8903,-0.3417 -2.2856,-1.9108 -3.1007,-3.4869 -1.3002,-2.5144 -1.3037,-3.2922 -0.029,-6.3433 0.9501,-2.2739 2.3411,-3.7004 4.0189,-4.1215 1.4113,-0.35425 2.5659,-1.17015 2.5659,-1.81315 0,-2.176 3.1802,-5.726 4.8452,-5.4087 1.1559,0.2203 1.8641,1.8198 2.349,5.305 z m -21.35369,51.87315 c 0.2149,1.1323 -0.6917,2.7277 -2.2732,4 -3.5685,2.871 -4.3548,8.266 -2.0748,14.236 1.5431,4.0407 2.4199,4.8941 7.19959,7.008 4.5135,1.9961 5.3883,2.788 5.1252,4.6397 -0.2298,1.6172 -1.1052,2.3231 -3.1748,2.5597 -8.63669,0.9877 -17.61809,-9.5071 -17.63689,-20.6089 -0.01,-4.316 2.5188,-10.2786 5.2836,-12.4712 2.822,-2.2381 7.0735,-1.8795 7.5513,0.6367 z m 54.29089,41.6869 c 1.1,0.5887 2.8089,2.9576 3.7977,5.2642 0.9887,2.3066 2.5341,4.805 3.4343,5.5521 2.0439,1.6963 2.1065,4.4785 0.1375,6.1126 -1.1919,0.9892 -2.1101,0.9911 -4.4806,0.01 -1.6398,-0.6792 -4.1605,-0.939 -5.6016,-0.5773 -3.3746,0.8469 -9.1507,-1.0618 -10.4264,-3.4454 -1.3837,-2.5855 -1.2391,-8.2941 0.2577,-10.1702 2.8904,-3.623 8.8629,-4.8958 12.8814,-2.7451 z"
       style="display:inline;fill:#785561;fill-opacity:1"
       id="path17787-39-0" />
  </g>
</svg>
